<svg width="270" height="33" viewBox="0 0 270 33" fill="none" xmlns="http://www.w3.org/2000/svg">
<path d="M20.1041 1.67647V7.72059H7.52252V14.25H16.9367V20.1176H7.52252V32.6471H0V1.67647H20.1041Z" fill="white"/>
<path d="M31.5803 12.1324C32.4601 10.7794 33.5599 9.72059 34.8796 8.95588C36.1994 8.16177 37.6658 7.76471 39.2788 7.76471V15.75H37.2112C35.3342 15.75 33.9265 16.1618 32.988 16.9853C32.0495 17.7794 31.5803 19.1912 31.5803 21.2206V32.6471H24.0578V8.02941H31.5803V12.1324Z" fill="white"/>
<path d="M41.3787 20.2941C41.3787 17.7647 41.8479 15.5441 42.7864 13.6324C43.7542 11.7206 45.0593 10.25 46.7016 9.22059C48.344 8.19118 50.177 7.67647 52.2006 7.67647C53.9309 7.67647 55.4412 8.02941 56.7317 8.73529C58.0514 9.44118 59.0632 10.3676 59.7671 11.5147V8.02941H67.2896V32.6471H59.7671V29.1618C59.0339 30.3088 58.0074 31.2353 56.6877 31.9412C55.3973 32.6471 53.8869 33 52.1566 33C50.1623 33 48.344 32.4853 46.7016 31.4559C45.0593 30.3971 43.7542 28.9118 42.7864 27C41.8479 25.0588 41.3787 22.8235 41.3787 20.2941ZM59.7671 20.3382C59.7671 18.4559 59.2392 16.9706 58.1834 15.8824C57.1569 14.7941 55.8958 14.25 54.4001 14.25C52.9044 14.25 51.6287 14.7941 50.5729 15.8824C49.5464 16.9412 49.0332 18.4118 49.0332 20.2941C49.0332 22.1765 49.5464 23.6765 50.5729 24.7941C51.6287 25.8824 52.9044 26.4265 54.4001 26.4265C55.8958 26.4265 57.1569 25.8824 58.1834 24.7941C59.2392 23.7059 59.7671 22.2206 59.7671 20.3382Z" fill="white"/>
<path d="M71.2361 20.3382C71.2361 17.7794 71.7493 15.5441 72.7758 13.6324C73.8316 11.7206 75.2833 10.25 77.1309 9.22059C79.0079 8.19118 81.1488 7.67647 83.5537 7.67647C86.6331 7.67647 89.1992 8.48529 91.2522 10.1029C93.3344 11.7206 94.6981 14 95.3434 16.9412H87.3369C86.6624 15.0588 85.3573 14.1176 83.4217 14.1176C82.0433 14.1176 80.9435 14.6618 80.1223 15.75C79.3012 16.8088 78.8906 18.3382 78.8906 20.3382C78.8906 22.3382 79.3012 23.8824 80.1223 24.9706C80.9435 26.0294 82.0433 26.5588 83.4217 26.5588C85.3573 26.5588 86.6624 25.6176 87.3369 23.7353H95.3434C94.6981 26.6176 93.3344 28.8824 91.2522 30.5294C89.1699 32.1765 86.6037 33 83.5537 33C81.1488 33 79.0079 32.4853 77.1309 31.4559C75.2833 30.4265 73.8316 28.9559 72.7758 27.0441C71.7493 25.1324 71.2361 22.8971 71.2361 20.3382Z" fill="white"/>
<path d="M113.048 26.25V32.6471H109.221C106.494 32.6471 104.368 31.9853 102.843 30.6618C101.317 29.3088 100.555 27.1176 100.555 24.0882V14.2941H97.5635V8.02941H100.555V2.02941H108.077V8.02941H113.005V14.2941H108.077V24.1765C108.077 24.9118 108.253 25.4412 108.605 25.7647C108.957 26.0882 109.544 26.25 110.365 26.25H113.048Z" fill="white"/>
<path d="M115.743 20.2941C115.743 17.7647 116.212 15.5441 117.151 13.6324C118.118 11.7206 119.424 10.25 121.066 9.22059C122.708 8.19118 124.541 7.67647 126.565 7.67647C128.295 7.67647 129.806 8.02941 131.096 8.73529C132.416 9.44118 133.427 10.3676 134.131 11.5147V8.02941H141.654V32.6471H134.131V29.1618C133.398 30.3088 132.372 31.2353 131.052 31.9412C129.762 32.6471 128.251 33 126.521 33C124.527 33 122.708 32.4853 121.066 31.4559C119.424 30.3971 118.118 28.9118 117.151 27C116.212 25.0588 115.743 22.8235 115.743 20.2941ZM134.131 20.3382C134.131 18.4559 133.603 16.9706 132.548 15.8824C131.521 14.7941 130.26 14.25 128.764 14.25C127.269 14.25 125.993 14.7941 124.937 15.8824C123.911 16.9412 123.397 18.4118 123.397 20.2941C123.397 22.1765 123.911 23.6765 124.937 24.7941C125.993 25.8824 127.269 26.4265 128.764 26.4265C130.26 26.4265 131.521 25.8824 132.548 24.7941C133.603 23.7059 134.131 22.2206 134.131 20.3382Z" fill="white"/>
<path d="M154.619 0V32.6471H147.096V0H154.619Z" fill="white"/>
<path d="M176.915 26.8235H186.769V32.6471H169.392V1.67647H176.915V26.8235Z" fill="white"/>
<path d="M188.861 20.2941C188.861 17.7647 189.331 15.5441 190.269 13.6324C191.237 11.7206 192.542 10.25 194.184 9.22059C195.827 8.19118 197.66 7.67647 199.683 7.67647C201.414 7.67647 202.924 8.02941 204.214 8.73529C205.534 9.44118 206.546 10.3676 207.25 11.5147V8.02941H214.772V32.6471H207.25V29.1618C206.517 30.3088 205.49 31.2353 204.17 31.9412C202.88 32.6471 201.37 33 199.639 33C197.645 33 195.827 32.4853 194.184 31.4559C192.542 30.3971 191.237 28.9118 190.269 27C189.331 25.0588 188.861 22.8235 188.861 20.2941ZM207.25 20.3382C207.25 18.4559 206.722 16.9706 205.666 15.8824C204.64 14.7941 203.379 14.25 201.883 14.25C200.387 14.25 199.111 14.7941 198.056 15.8824C197.029 16.9412 196.516 18.4118 196.516 20.2941C196.516 22.1765 197.029 23.6765 198.056 24.7941C199.111 25.8824 200.387 26.4265 201.883 26.4265C203.379 26.4265 204.64 25.8824 205.666 24.7941C206.722 23.7059 207.25 22.2206 207.25 20.3382Z" fill="white"/>
<path d="M227.737 11.5147C228.441 10.3676 229.453 9.44118 230.772 8.73529C232.092 8.02941 233.603 7.67647 235.304 7.67647C237.327 7.67647 239.16 8.19118 240.802 9.22059C242.445 10.25 243.735 11.7206 244.674 13.6324C245.642 15.5441 246.125 17.7647 246.125 20.2941C246.125 22.8235 245.642 25.0588 244.674 27C243.735 28.9118 242.445 30.3971 240.802 31.4559C239.16 32.4853 237.327 33 235.304 33C233.573 33 232.063 32.6618 230.772 31.9853C229.482 31.2794 228.47 30.3529 227.737 29.2059V32.6471H220.215V0H227.737V11.5147ZM238.471 20.2941C238.471 18.4118 237.943 16.9412 236.887 15.8824C235.861 14.7941 234.585 14.25 233.06 14.25C231.564 14.25 230.289 14.7941 229.233 15.8824C228.206 16.9706 227.693 18.4559 227.693 20.3382C227.693 22.2206 228.206 23.7059 229.233 24.7941C230.289 25.8824 231.564 26.4265 233.06 26.4265C234.556 26.4265 235.831 25.8824 236.887 24.7941C237.943 23.6765 238.471 22.1765 238.471 20.2941Z" fill="white"/>
<path d="M260.058 33C257.917 33 256.011 32.6324 254.339 31.8971C252.667 31.1618 251.348 30.1618 250.38 28.8971C249.412 27.6029 248.87 26.1618 248.752 24.5735H256.187C256.275 25.4265 256.671 26.1176 257.374 26.6471C258.078 27.1765 258.944 27.4412 259.97 27.4412C260.908 27.4412 261.627 27.2647 262.126 26.9118C262.653 26.5294 262.917 26.0441 262.917 25.4559C262.917 24.75 262.551 24.2353 261.818 23.9118C261.084 23.5588 259.897 23.1765 258.254 22.7647C256.495 22.3529 255.028 21.9265 253.855 21.4853C252.682 21.0147 251.67 20.2941 250.82 19.3235C249.969 18.3235 249.544 16.9853 249.544 15.3088C249.544 13.8971 249.925 12.6176 250.688 11.4706C251.48 10.2941 252.623 9.36765 254.119 8.69118C255.644 8.0147 257.448 7.67647 259.53 7.67647C262.609 7.67647 265.029 8.44118 266.789 9.97059C268.578 11.5 269.604 13.5294 269.868 16.0588H262.917C262.8 15.2059 262.419 14.5294 261.774 14.0294C261.158 13.5294 260.337 13.2794 259.31 13.2794C258.43 13.2794 257.756 13.4559 257.287 13.8088C256.817 14.1324 256.583 14.5882 256.583 15.1765C256.583 15.8824 256.949 16.4118 257.682 16.7647C258.445 17.1176 259.618 17.4706 261.202 17.8235C263.02 18.2941 264.501 18.7647 265.645 19.2353C266.789 19.6765 267.786 20.4118 268.636 21.4412C269.516 22.4412 269.971 23.7941 270 25.5C270 26.9412 269.589 28.2353 268.768 29.3824C267.976 30.5 266.818 31.3824 265.293 32.0294C263.797 32.6765 262.052 33 260.058 33Z" fill="white"/>
</svg>
