<svg xmlns="http://www.w3.org/2000/svg" width="1227" height="357" viewBox="0 0 1227 357" fill="none">
<mask id="mask0_173_1061" style="mask-type:alpha" maskUnits="userSpaceOnUse" x="0" y="0" width="1227" height="357">
<rect x="1227" y="357" width="1227" height="357" transform="rotate(-180 1227 357)" fill="url(#paint0_radial_173_1061)"/>
</mask>
<g mask="url(#mask0_173_1061)">
<rect x="1170.5" y="286.5" width="55" height="55" transform="rotate(-180 1170.5 286.5)" stroke="#00FEDC" stroke-opacity="0.192"/>
<rect x="1115.5" y="286.5" width="55" height="55" transform="rotate(-180 1115.5 286.5)" stroke="#00FEDC" stroke-opacity="0.192"/>
<rect x="1060.5" y="286.5" width="55" height="55" transform="rotate(-180 1060.5 286.5)" stroke="#00FEDC" stroke-opacity="0.192"/>
<rect x="1005.5" y="286.5" width="55" height="55" transform="rotate(-180 1005.5 286.5)" stroke="#00FEDC" stroke-opacity="0.192"/>
<rect x="950.5" y="286.5" width="55" height="55" transform="rotate(-180 950.5 286.5)" stroke="#00FEDC" stroke-opacity="0.192"/>
<rect x="896" y="287" width="56" height="56" transform="rotate(-180 896 287)" fill="#2CFFD1" fill-opacity="0.2"/>
<rect x="895.5" y="286.5" width="55" height="55" transform="rotate(-180 895.5 286.5)" stroke="#00FEDC" stroke-opacity="0.192"/>
<rect x="840.5" y="286.5" width="55" height="55" transform="rotate(-180 840.5 286.5)" stroke="#00FEDC" stroke-opacity="0.192"/>
<rect x="785.5" y="286.5" width="55" height="55" transform="rotate(-180 785.5 286.5)" stroke="#00FEDC" stroke-opacity="0.192"/>
<rect x="730.5" y="286.5" width="55" height="55" transform="rotate(-180 730.5 286.5)" stroke="#00FEDC" stroke-opacity="0.192"/>
<rect x="675.5" y="286.5" width="55" height="55" transform="rotate(-180 675.5 286.5)" stroke="#00FEDC" stroke-opacity="0.192"/>
<rect x="620.5" y="286.5" width="55" height="55" transform="rotate(-180 620.5 286.5)" stroke="#00FEDC" stroke-opacity="0.192"/>
<rect x="565.5" y="286.5" width="55" height="55" transform="rotate(-180 565.5 286.5)" stroke="#00FEDC" stroke-opacity="0.192"/>
<rect x="510.5" y="286.5" width="55" height="55" transform="rotate(-180 510.5 286.5)" stroke="#00FEDC" stroke-opacity="0.192"/>
<rect x="455.5" y="286.5" width="55" height="55" transform="rotate(-180 455.5 286.5)" stroke="#00FEDC" stroke-opacity="0.192"/>
<rect x="401" y="287" width="56" height="56" transform="rotate(-180 401 287)" fill="#2CFFD1" fill-opacity="0.2"/>
<rect x="400.5" y="286.5" width="55" height="55" transform="rotate(-180 400.5 286.5)" stroke="#00FEDC" stroke-opacity="0.192"/>
<rect x="345.5" y="286.5" width="55" height="55" transform="rotate(-180 345.5 286.5)" stroke="#00FEDC" stroke-opacity="0.192"/>
<rect x="290.5" y="286.5" width="55" height="55" transform="rotate(-180 290.5 286.5)" stroke="#00FEDC" stroke-opacity="0.192"/>
<rect x="235.5" y="286.5" width="55" height="55" transform="rotate(-180 235.5 286.5)" stroke="#00FEDC" stroke-opacity="0.192"/>
<rect x="180.5" y="286.5" width="55" height="55" transform="rotate(-180 180.5 286.5)" stroke="#00FEDC" stroke-opacity="0.192"/>
<rect x="125.5" y="286.5" width="55" height="55" transform="rotate(-180 125.5 286.5)" stroke="#00FEDC" stroke-opacity="0.192"/>
<rect x="1170.5" y="231.5" width="55" height="55" transform="rotate(-180 1170.5 231.5)" stroke="#00FEDC" stroke-opacity="0.192"/>
<rect x="1115.5" y="231.5" width="55" height="55" transform="rotate(-180 1115.5 231.5)" stroke="#00FEDC" stroke-opacity="0.192"/>
<rect x="1060.5" y="231.5" width="55" height="55" transform="rotate(-180 1060.5 231.5)" stroke="#00FEDC" stroke-opacity="0.192"/>
<rect x="1006" y="232" width="56" height="56" transform="rotate(-180 1006 232)" fill="#2CFFD1" fill-opacity="0.2"/>
<rect x="1005.5" y="231.5" width="55" height="55" transform="rotate(-180 1005.5 231.5)" stroke="#00FEDC" stroke-opacity="0.192"/>
<rect x="950.5" y="231.5" width="55" height="55" transform="rotate(-180 950.5 231.5)" stroke="#00FEDC" stroke-opacity="0.192"/>
<rect x="895.5" y="231.5" width="55" height="55" transform="rotate(-180 895.5 231.5)" stroke="#00FEDC" stroke-opacity="0.192"/>
<rect x="840.5" y="231.5" width="55" height="55" transform="rotate(-180 840.5 231.5)" stroke="#00FEDC" stroke-opacity="0.192"/>
<rect x="786" y="232" width="56" height="56" transform="rotate(-180 786 232)" fill="#2CFFD1" fill-opacity="0.2"/>
<rect x="785.5" y="231.5" width="55" height="55" transform="rotate(-180 785.5 231.5)" stroke="#00FEDC" stroke-opacity="0.192"/>
<rect x="730.5" y="231.5" width="55" height="55" transform="rotate(-180 730.5 231.5)" stroke="#00FEDC" stroke-opacity="0.192"/>
<rect x="675.5" y="231.5" width="55" height="55" transform="rotate(-180 675.5 231.5)" stroke="#00FEDC" stroke-opacity="0.192"/>
<rect x="620.5" y="231.5" width="55" height="55" transform="rotate(-180 620.5 231.5)" stroke="#00FEDC" stroke-opacity="0.192"/>
<rect x="565.5" y="231.5" width="55" height="55" transform="rotate(-180 565.5 231.5)" stroke="#00FEDC" stroke-opacity="0.192"/>
<rect x="511" y="232" width="56" height="56" transform="rotate(-180 511 232)" fill="#2CFFD1" fill-opacity="0.2"/>
<rect x="510.5" y="231.5" width="55" height="55" transform="rotate(-180 510.5 231.5)" stroke="#00FEDC" stroke-opacity="0.192"/>
<rect x="455.5" y="231.5" width="55" height="55" transform="rotate(-180 455.5 231.5)" stroke="#00FEDC" stroke-opacity="0.192"/>
<rect x="400.5" y="231.5" width="55" height="55" transform="rotate(-180 400.5 231.5)" stroke="#00FEDC" stroke-opacity="0.192"/>
<rect x="345.5" y="231.5" width="55" height="55" transform="rotate(-180 345.5 231.5)" stroke="#00FEDC" stroke-opacity="0.192"/>
<rect x="290.5" y="231.5" width="55" height="55" transform="rotate(-180 290.5 231.5)" stroke="#00FEDC" stroke-opacity="0.192"/>
<rect x="235.5" y="231.5" width="55" height="55" transform="rotate(-180 235.5 231.5)" stroke="#00FEDC" stroke-opacity="0.192"/>
<rect x="180.5" y="231.5" width="55" height="55" transform="rotate(-180 180.5 231.5)" stroke="#00FEDC" stroke-opacity="0.192"/>
<rect x="125.5" y="231.5" width="55" height="55" transform="rotate(-180 125.5 231.5)" stroke="#00FEDC" stroke-opacity="0.192"/>
<rect x="1170.5" y="176.5" width="55" height="55" transform="rotate(-180 1170.5 176.5)" stroke="#00FEDC" stroke-opacity="0.192"/>
<rect x="1115.5" y="176.5" width="55" height="55" transform="rotate(-180 1115.5 176.5)" stroke="#00FEDC" stroke-opacity="0.192"/>
<rect x="1060.5" y="176.5" width="55" height="55" transform="rotate(-180 1060.5 176.5)" stroke="#00FEDC" stroke-opacity="0.192"/>
<rect x="1005.5" y="176.5" width="55" height="55" transform="rotate(-180 1005.5 176.5)" stroke="#00FEDC" stroke-opacity="0.192"/>
<rect x="950.5" y="176.5" width="55" height="55" transform="rotate(-180 950.5 176.5)" stroke="#00FEDC" stroke-opacity="0.192"/>
<rect x="895.5" y="176.5" width="55" height="55" transform="rotate(-180 895.5 176.5)" stroke="#00FEDC" stroke-opacity="0.192"/>
<rect x="841" y="177" width="56" height="56" transform="rotate(-180 841 177)" fill="#2CFFD1" fill-opacity="0.2"/>
<rect x="840.5" y="176.5" width="55" height="55" transform="rotate(-180 840.5 176.5)" stroke="#00FEDC" stroke-opacity="0.192"/>
<rect x="785.5" y="176.5" width="55" height="55" transform="rotate(-180 785.5 176.5)" stroke="#00FEDC" stroke-opacity="0.192"/>
<rect x="730.5" y="176.5" width="55" height="55" transform="rotate(-180 730.5 176.5)" stroke="#00FEDC" stroke-opacity="0.192"/>
<rect x="676" y="177" width="56" height="56" transform="rotate(-180 676 177)" fill="#2CFFD1" fill-opacity="0.2"/>
<rect x="675.5" y="176.5" width="55" height="55" transform="rotate(-180 675.5 176.5)" stroke="#00FEDC" stroke-opacity="0.192"/>
<rect x="620.5" y="176.5" width="55" height="55" transform="rotate(-180 620.5 176.5)" stroke="#00FEDC" stroke-opacity="0.192"/>
<rect x="565.5" y="176.5" width="55" height="55" transform="rotate(-180 565.5 176.5)" stroke="#00FEDC" stroke-opacity="0.192"/>
<rect x="510.5" y="176.5" width="55" height="55" transform="rotate(-180 510.5 176.5)" stroke="#00FEDC" stroke-opacity="0.192"/>
<rect x="455.5" y="176.5" width="55" height="55" transform="rotate(-180 455.5 176.5)" stroke="#00FEDC" stroke-opacity="0.192"/>
<rect x="400.5" y="176.5" width="55" height="55" transform="rotate(-180 400.5 176.5)" stroke="#00FEDC" stroke-opacity="0.192"/>
<rect x="345.5" y="176.5" width="55" height="55" transform="rotate(-180 345.5 176.5)" stroke="#00FEDC" stroke-opacity="0.192"/>
<rect x="290.5" y="176.5" width="55" height="55" transform="rotate(-180 290.5 176.5)" stroke="#00FEDC" stroke-opacity="0.192"/>
<rect x="235.5" y="176.5" width="55" height="55" transform="rotate(-180 235.5 176.5)" stroke="#00FEDC" stroke-opacity="0.192"/>
<rect x="180.5" y="176.5" width="55" height="55" transform="rotate(-180 180.5 176.5)" stroke="#00FEDC" stroke-opacity="0.192"/>
<rect x="125.5" y="176.5" width="55" height="55" transform="rotate(-180 125.5 176.5)" stroke="#00FEDC" stroke-opacity="0.192"/>
<rect x="1170.5" y="121.5" width="55" height="55" transform="rotate(-180 1170.5 121.5)" stroke="#00FEDC" stroke-opacity="0.192"/>
<rect x="1115.5" y="121.5" width="55" height="55" transform="rotate(-180 1115.5 121.5)" stroke="#00FEDC" stroke-opacity="0.192"/>
<rect x="1060.5" y="121.5" width="55" height="55" transform="rotate(-180 1060.5 121.5)" stroke="#00FEDC" stroke-opacity="0.192"/>
<rect x="1005.5" y="121.5" width="55" height="55" transform="rotate(-180 1005.5 121.5)" stroke="#00FEDC" stroke-opacity="0.192"/>
<rect x="950.5" y="121.5" width="55" height="55" transform="rotate(-180 950.5 121.5)" stroke="#00FEDC" stroke-opacity="0.192"/>
<rect x="895.5" y="121.5" width="55" height="55" transform="rotate(-180 895.5 121.5)" stroke="#00FEDC" stroke-opacity="0.192"/>
<rect x="840.5" y="121.5" width="55" height="55" transform="rotate(-180 840.5 121.5)" stroke="#00FEDC" stroke-opacity="0.192"/>
<rect x="785.5" y="121.5" width="55" height="55" transform="rotate(-180 785.5 121.5)" stroke="#00FEDC" stroke-opacity="0.192"/>
<rect x="730.5" y="121.5" width="55" height="55" transform="rotate(-180 730.5 121.5)" stroke="#00FEDC" stroke-opacity="0.192"/>
<rect x="675.5" y="121.5" width="55" height="55" transform="rotate(-180 675.5 121.5)" stroke="#00FEDC" stroke-opacity="0.192"/>
<rect x="620.5" y="121.5" width="55" height="55" transform="rotate(-180 620.5 121.5)" stroke="#00FEDC" stroke-opacity="0.192"/>
<rect x="565.5" y="121.5" width="55" height="55" transform="rotate(-180 565.5 121.5)" stroke="#00FEDC" stroke-opacity="0.192"/>
<rect x="510.5" y="121.5" width="55" height="55" transform="rotate(-180 510.5 121.5)" stroke="#00FEDC" stroke-opacity="0.192"/>
<rect x="455.5" y="121.5" width="55" height="55" transform="rotate(-180 455.5 121.5)" stroke="#00FEDC" stroke-opacity="0.192"/>
<rect x="400.5" y="121.5" width="55" height="55" transform="rotate(-180 400.5 121.5)" stroke="#00FEDC" stroke-opacity="0.192"/>
<rect x="345.5" y="121.5" width="55" height="55" transform="rotate(-180 345.5 121.5)" stroke="#00FEDC" stroke-opacity="0.192"/>
<rect x="290.5" y="121.5" width="55" height="55" transform="rotate(-180 290.5 121.5)" stroke="#00FEDC" stroke-opacity="0.192"/>
<rect x="235.5" y="121.5" width="55" height="55" transform="rotate(-180 235.5 121.5)" stroke="#00FEDC" stroke-opacity="0.192"/>
<rect x="180.5" y="121.5" width="55" height="55" transform="rotate(-180 180.5 121.5)" stroke="#00FEDC" stroke-opacity="0.192"/>
<rect x="125.5" y="121.5" width="55" height="55" transform="rotate(-180 125.5 121.5)" stroke="#00FEDC" stroke-opacity="0.192"/>
</g>
<defs>
<radialGradient id="paint0_radial_173_1061" cx="0" cy="0" r="1" gradientUnits="userSpaceOnUse" gradientTransform="translate(1841 496.5) rotate(90.1317) scale(217.501 747.544)">
<stop stop-color="#D7D7D7" stop-opacity="0.2"/>
<stop offset="0.522644" stop-color="#D9D9D9" stop-opacity="0"/>
</radialGradient>
</defs>
</svg>
