<svg width="1227" height="357" viewBox="0 0 1227 357" fill="none" xmlns="http://www.w3.org/2000/svg">
<g clip-path="url(#clip0_43_8223)">
<mask id="mask0_43_8223" style="mask-type:alpha" maskUnits="userSpaceOnUse" x="0" y="0" width="1227" height="357">
<path d="M1227 0H0V357H1227V0Z" fill="url(#paint0_radial_43_8223)"/>
</mask>
<g mask="url(#mask0_43_8223)">
<path d="M111.5 70.5H56.5V125.5H111.5V70.5Z" stroke="#00FEDC" stroke-opacity="0.5"/>
<path d="M166.5 70.5H111.5V125.5H166.5V70.5Z" stroke="#00FEDC" stroke-opacity="0.5"/>
<path d="M221.5 70.5H166.5V125.5H221.5V70.5Z" stroke="#00FEDC" stroke-opacity="0.5"/>
<path d="M276.5 70.5H221.5V125.5H276.5V70.5Z" stroke="#00FEDC" stroke-opacity="0.5"/>
<path d="M331.5 70.5H276.5V125.5H331.5V70.5Z" stroke="#00FEDC" stroke-opacity="0.5"/>
<path d="M387 70H331V126H387V70Z" fill="#2CFFD1" fill-opacity="0.7"/>
<path d="M386.5 70.5H331.5V125.5H386.5V70.5Z" stroke="#00FEDC" stroke-opacity="0.5"/>
<path d="M441.5 70.5H386.5V125.5H441.5V70.5Z" stroke="#00FEDC" stroke-opacity="0.5"/>
<path d="M496.5 70.5H441.5V125.5H496.5V70.5Z" stroke="#00FEDC" stroke-opacity="0.5"/>
<path d="M551.5 70.5H496.5V125.5H551.5V70.5Z" stroke="#00FEDC" stroke-opacity="0.5"/>
<path d="M606.5 70.5H551.5V125.5H606.5V70.5Z" stroke="#00FEDC" stroke-opacity="0.5"/>
<path d="M661.5 70.5H606.5V125.5H661.5V70.5Z" stroke="#00FEDC" stroke-opacity="0.5"/>
<path d="M716.5 70.5H661.5V125.5H716.5V70.5Z" stroke="#00FEDC" stroke-opacity="0.5"/>
<path d="M771.5 70.5H716.5V125.5H771.5V70.5Z" stroke="#00FEDC" stroke-opacity="0.5"/>
<path d="M826.5 70.5H771.5V125.5H826.5V70.5Z" stroke="#00FEDC" stroke-opacity="0.5"/>
<path d="M882 70H826V126H882V70Z" fill="#2CFFD1" fill-opacity="0.7"/>
<path d="M881.5 70.5H826.5V125.5H881.5V70.5Z" stroke="#00FEDC" stroke-opacity="0.5"/>
<path d="M936.5 70.5H881.5V125.5H936.5V70.5Z" stroke="#00FEDC" stroke-opacity="0.5"/>
<path d="M991.5 70.5H936.5V125.5H991.5V70.5Z" stroke="#00FEDC" stroke-opacity="0.5"/>
<path d="M1046.5 70.5H991.5V125.5H1046.5V70.5Z" stroke="#00FEDC" stroke-opacity="0.5"/>
<path d="M1101.5 70.5H1046.5V125.5H1101.5V70.5Z" stroke="#00FEDC" stroke-opacity="0.5"/>
<path d="M1156.5 70.5H1101.5V125.5H1156.5V70.5Z" stroke="#00FEDC" stroke-opacity="0.5"/>
<path d="M111.5 125.5H56.5V180.5H111.5V125.5Z" stroke="#00FEDC" stroke-opacity="0.5"/>
<path d="M166.5 125.5H111.5V180.5H166.5V125.5Z" stroke="#00FEDC" stroke-opacity="0.5"/>
<path d="M221.5 125.5H166.5V180.5H221.5V125.5Z" stroke="#00FEDC" stroke-opacity="0.5"/>
<path d="M277 125H221V181H277V125Z" fill="#2CFFD1" fill-opacity="0.7"/>
<path d="M276.5 125.5H221.5V180.5H276.5V125.5Z" stroke="#00FEDC" stroke-opacity="0.5"/>
<path d="M331.5 125.5H276.5V180.5H331.5V125.5Z" stroke="#00FEDC" stroke-opacity="0.5"/>
<path d="M386.5 125.5H331.5V180.5H386.5V125.5Z" stroke="#00FEDC" stroke-opacity="0.5"/>
<path d="M441.5 125.5H386.5V180.5H441.5V125.5Z" stroke="#00FEDC" stroke-opacity="0.5"/>
<path d="M497 125H441V181H497V125Z" fill="#2CFFD1" fill-opacity="0.7"/>
<path d="M496.5 125.5H441.5V180.5H496.5V125.5Z" stroke="#00FEDC" stroke-opacity="0.5"/>
<path d="M551.5 125.5H496.5V180.5H551.5V125.5Z" stroke="#00FEDC" stroke-opacity="0.5"/>
<path d="M606.5 125.5H551.5V180.5H606.5V125.5Z" stroke="#00FEDC" stroke-opacity="0.5"/>
<path d="M661.5 125.5H606.5V180.5H661.5V125.5Z" stroke="#00FEDC" stroke-opacity="0.5"/>
<path d="M716.5 125.5H661.5V180.5H716.5V125.5Z" stroke="#00FEDC" stroke-opacity="0.5"/>
<path d="M772 125H716V181H772V125Z" fill="#2CFFD1" fill-opacity="0.7"/>
<path d="M771.5 125.5H716.5V180.5H771.5V125.5Z" stroke="#00FEDC" stroke-opacity="0.5"/>
<path d="M826.5 125.5H771.5V180.5H826.5V125.5Z" stroke="#00FEDC" stroke-opacity="0.5"/>
<path d="M881.5 125.5H826.5V180.5H881.5V125.5Z" stroke="#00FEDC" stroke-opacity="0.5"/>
<path d="M936.5 125.5H881.5V180.5H936.5V125.5Z" stroke="#00FEDC" stroke-opacity="0.5"/>
<path d="M991.5 125.5H936.5V180.5H991.5V125.5Z" stroke="#00FEDC" stroke-opacity="0.5"/>
<path d="M1046.5 125.5H991.5V180.5H1046.5V125.5Z" stroke="#00FEDC" stroke-opacity="0.5"/>
<path d="M1101.5 125.5H1046.5V180.5H1101.5V125.5Z" stroke="#00FEDC" stroke-opacity="0.5"/>
<path d="M1156.5 125.5H1101.5V180.5H1156.5V125.5Z" stroke="#00FEDC" stroke-opacity="0.5"/>
<path d="M111.5 180.5H56.5V235.5H111.5V180.5Z" stroke="#00FEDC" stroke-opacity="0.5"/>
<path d="M166.5 180.5H111.5V235.5H166.5V180.5Z" stroke="#00FEDC" stroke-opacity="0.5"/>
<path d="M221.5 180.5H166.5V235.5H221.5V180.5Z" stroke="#00FEDC" stroke-opacity="0.5"/>
<path d="M276.5 180.5H221.5V235.5H276.5V180.5Z" stroke="#00FEDC" stroke-opacity="0.5"/>
<path d="M331.5 180.5H276.5V235.5H331.5V180.5Z" stroke="#00FEDC" stroke-opacity="0.5"/>
<path d="M386.5 180.5H331.5V235.5H386.5V180.5Z" stroke="#00FEDC" stroke-opacity="0.5"/>
<path d="M442 180H386V236H442V180Z" fill="#2CFFD1" fill-opacity="0.7"/>
<path d="M441.5 180.5H386.5V235.5H441.5V180.5Z" stroke="#00FEDC" stroke-opacity="0.5"/>
<path d="M496.5 180.5H441.5V235.5H496.5V180.5Z" stroke="#00FEDC" stroke-opacity="0.5"/>
<path d="M551.5 180.5H496.5V235.5H551.5V180.5Z" stroke="#00FEDC" stroke-opacity="0.5"/>
<path d="M607 180H551V236H607V180Z" fill="#2CFFD1" fill-opacity="0.7"/>
<path d="M606.5 180.5H551.5V235.5H606.5V180.5Z" stroke="#00FEDC" stroke-opacity="0.5"/>
<path d="M661.5 180.5H606.5V235.5H661.5V180.5Z" stroke="#00FEDC" stroke-opacity="0.5"/>
<path d="M716.5 180.5H661.5V235.5H716.5V180.5Z" stroke="#00FEDC" stroke-opacity="0.5"/>
<path d="M771.5 180.5H716.5V235.5H771.5V180.5Z" stroke="#00FEDC" stroke-opacity="0.5"/>
<path d="M826.5 180.5H771.5V235.5H826.5V180.5Z" stroke="#00FEDC" stroke-opacity="0.5"/>
<path d="M881.5 180.5H826.5V235.5H881.5V180.5Z" stroke="#00FEDC" stroke-opacity="0.5"/>
<path d="M936.5 180.5H881.5V235.5H936.5V180.5Z" stroke="#00FEDC" stroke-opacity="0.5"/>
<path d="M991.5 180.5H936.5V235.5H991.5V180.5Z" stroke="#00FEDC" stroke-opacity="0.5"/>
<path d="M1046.5 180.5H991.5V235.5H1046.5V180.5Z" stroke="#00FEDC" stroke-opacity="0.5"/>
<path d="M1101.5 180.5H1046.5V235.5H1101.5V180.5Z" stroke="#00FEDC" stroke-opacity="0.5"/>
<path d="M1156.5 180.5H1101.5V235.5H1156.5V180.5Z" stroke="#00FEDC" stroke-opacity="0.5"/>
<path d="M111.5 235.5H56.5V290.5H111.5V235.5Z" stroke="#00FEDC" stroke-opacity="0.5"/>
<path d="M166.5 235.5H111.5V290.5H166.5V235.5Z" stroke="#00FEDC" stroke-opacity="0.5"/>
<path d="M221.5 235.5H166.5V290.5H221.5V235.5Z" stroke="#00FEDC" stroke-opacity="0.5"/>
<path d="M276.5 235.5H221.5V290.5H276.5V235.5Z" stroke="#00FEDC" stroke-opacity="0.5"/>
<path d="M331.5 235.5H276.5V290.5H331.5V235.5Z" stroke="#00FEDC" stroke-opacity="0.5"/>
<path d="M386.5 235.5H331.5V290.5H386.5V235.5Z" stroke="#00FEDC" stroke-opacity="0.5"/>
<path d="M441.5 235.5H386.5V290.5H441.5V235.5Z" stroke="#00FEDC" stroke-opacity="0.5"/>
<path d="M496.5 235.5H441.5V290.5H496.5V235.5Z" stroke="#00FEDC" stroke-opacity="0.5"/>
<path d="M551.5 235.5H496.5V290.5H551.5V235.5Z" stroke="#00FEDC" stroke-opacity="0.5"/>
<path d="M606.5 235.5H551.5V290.5H606.5V235.5Z" stroke="#00FEDC" stroke-opacity="0.5"/>
<path d="M661.5 235.5H606.5V290.5H661.5V235.5Z" stroke="#00FEDC" stroke-opacity="0.5"/>
<path d="M716.5 235.5H661.5V290.5H716.5V235.5Z" stroke="#00FEDC" stroke-opacity="0.5"/>
<path d="M771.5 235.5H716.5V290.5H771.5V235.5Z" stroke="#00FEDC" stroke-opacity="0.5"/>
<path d="M826.5 235.5H771.5V290.5H826.5V235.5Z" stroke="#00FEDC" stroke-opacity="0.5"/>
<path d="M881.5 235.5H826.5V290.5H881.5V235.5Z" stroke="#00FEDC" stroke-opacity="0.5"/>
<path d="M936.5 235.5H881.5V290.5H936.5V235.5Z" stroke="#00FEDC" stroke-opacity="0.5"/>
<path d="M991.5 235.5H936.5V290.5H991.5V235.5Z" stroke="#00FEDC" stroke-opacity="0.5"/>
<path d="M1046.5 235.5H991.5V290.5H1046.5V235.5Z" stroke="#00FEDC" stroke-opacity="0.5"/>
<path d="M1101.5 235.5H1046.5V290.5H1101.5V235.5Z" stroke="#00FEDC" stroke-opacity="0.5"/>
<path d="M1156.5 235.5H1101.5V290.5H1156.5V235.5Z" stroke="#00FEDC" stroke-opacity="0.5"/>
</g>
</g>
<defs>
<radialGradient id="paint0_radial_43_8223" cx="0" cy="0" r="1" gradientUnits="userSpaceOnUse" gradientTransform="translate(614 139.5) rotate(90.1317) scale(217.501 747.544)">
<stop stop-color="#D7D7D7" stop-opacity="0.2"/>
<stop offset="0.522644" stop-color="#D9D9D9" stop-opacity="0"/>
</radialGradient>
<clipPath id="clip0_43_8223">
<rect width="1227" height="357" fill="white"/>
</clipPath>
</defs>
</svg>
